HIERARCHY
ROOT Hips
{
	OFFSET 0.000000 0.000000 0.000000 
	CHANNELS 6 Xposition Yposition Zposition Yrotation Zrotation Xrotation 
	JOINT Lumbar
	{
		OFFSET 0.000000 0.000000 0.000000 
		CHANNELS 3 Zrotation Xrotation Yrotation
		JOINT Neck
		{
			OFFSET 0.000000 0.445665 0.000000 
			CHANNELS 3 Zrotation Xrotation Yrotation
			End Site
			{
				OFFSET 0.000000 0.227535 0.000000 
			}
		}
		JOINT RightShoulder
		{
			OFFSET 0.019635 0.377685 0.194865 
			CHANNELS 3 Zrotation Xrotation Yrotation
			JOINT RightElbow
			{
				OFFSET 0.000000 -0.243375 0.000000 
				CHANNELS 2 Zrotation Yrotation
				JOINT RightWrist
				{
					OFFSET 0.000000 -0.264825 0.000000 
					CHANNELS 2 Zrotation Xrotation
					End Site
					{
						OFFSET 0.006600 -0.176220 0.000990 
					}
				}
			}
		}
		JOINT LeftShoulder
		{
			OFFSET 0.019635 0.377685 -0.194865 
			CHANNELS 3 Zrotation Xrotation Yrotation
			JOINT LeftElbow
			{
				OFFSET 0.000000 -0.243375 0.000000 
				CHANNELS 2 Zrotation Yrotation
				JOINT LeftWrist
				{
					OFFSET 0.000000 -0.264825 0.000000 
					CHANNELS 2 Zrotation Xrotation
					End Site
					{
						OFFSET 0.006600 -0.176220 -0.000990 
					}
				}
			}
		}
	}
	JOINT RightHip
	{
		OFFSET 0.052140 -0.069960 0.075570 
		CHANNELS 3 Zrotation Xrotation Yrotation
		JOINT RightKnee
		{
			OFFSET 0.000000 -0.402270 0.000000 
			CHANNELS 1 Zrotation
			JOINT RightAnkle
			{
				OFFSET 0.000000 -0.404085 0.000000 
				CHANNELS 3 Zrotation Xrotation Yrotation
				End Site
				{
					OFFSET 0.204105 -0.089430 0.008415 
				}
			}
		}
	}
	JOINT LeftHip
	{
		OFFSET 0.052140 -0.069960 -0.075570 
		CHANNELS 3 Zrotation Xrotation Yrotation
		JOINT LeftKnee
		{
			OFFSET 0.000000 -0.402270 0.000000 
			CHANNELS 1 Zrotation
			JOINT LeftAnkle
			{
				OFFSET 0.000000 -0.404085 0.000000 
				CHANNELS 3 Zrotation Xrotation Yrotation
				End Site
				{
					OFFSET 0.204105 -0.089430 -0.008415 
				}
			}
		}
	}
}
MOTION
Frames: 11
Frame Time: 0.02
-1.02346 0.90479 0.1444 172.97341 0 0.86568 -58.06927 4.87133 51.104 -66.57755 38.96073 13.66097 143.24041 -31.44416 55.62274 5.78689 75.30879 -0.93234 1.50539 133.04062 -16.19378 -55.62278 20.11868 -87.27491 6.04408 -1.06254 15.99123 -12.09362 3.25941 -33.12543 9.3713 2.89448 8.39976 21.35441 -2.89042 7.4553 -30.77781 6.29021 0.15104 -2.81736
-1.02249 0.90567 0.1438 173.0192 0 0.70926 -58.06927 4.80817 50.66788 -66.57763 38.9608 12.03764 142.33872 -29.82139 55.64484 5.78688 75.79356 -0.90147 1.52786 133.00867 -16.24071 -55.64835 18.18748 -87.19801 5.14606 -0.99011 15.87283 -11.8618 3.31916 -32.80948 9.07486 2.74014 8.23389 21.41321 -2.72471 7.36231 -30.75658 6.07494 0.19678 -2.78395
-1.02095 0.90657 0.14317 173.0709 0 0.51299 -58.06927 4.7006 50.0982 -66.57747 38.96081 9.9675 141.27116 -27.73187 55.63149 5.78695 76.3443 -0.88178 1.55687 133.02601 -16.2201 -55.63642 15.77885 -87.0476 4.02843 -0.90497 15.78133 -11.54761 3.49754 -32.48568 8.73154 2.54361 7.9591 21.52256 -2.51668 7.24448 -30.76824 5.833 0.2457 -2.74651
-1.01971 0.90747 0.14254 173.11602 0 0.33354 -58.06927 4.60913 49.55347 -66.57776 38.96096 8.02254 140.28047 -25.75994 55.56776 5.78692 76.89519 -0.85615 1.57906 133.01494 -16.10431 -55.57429 13.63939 -86.90196 3.03029 -0.83119 15.67305 -11.26808 3.62561 -32.16004 8.40865 2.36432 7.72966 21.60054 -2.32701 7.13534 -30.75585 5.60871 0.29247 -2.70881
-1.01828 0.90834 0.14194 173.1785 0 0.1589 -58.06927 4.53492 49.15033 -66.57771 38.961 6.37955 139.27668 -24.15899 55.7702 5.78689 77.32831 -0.83363 1.61802 133.0293 -16.4981 -55.78771 11.27427 -86.87314 1.94604 -0.73487 15.58189 -11.00008 3.7373 -31.85442 8.08833 2.19211 7.51714 21.71264 -2.14094 7.03702 -30.7796 5.36026 0.34138 -2.6805
-1.01711 0.90927 0.14128 173.2061 0 -0.03479 -58.06927 4.41472 48.43149 -66.57694 38.96082 4.03082 138.26647 -21.70648 55.42798 5.78724 78.01321 -0.80755 1.62298 133.0018 -15.84166 -55.42865 9.26911 -86.58942 0.9908 -0.68105 15.46213 -10.68932 3.90962 -31.50597 7.75167 1.99623 7.24546 21.76631 -1.93763 6.90982 -30.73682 5.15558 0.38723 -2.63101
-1.01679 0.91033 0.14051 173.13302 0 -0.2738 -58.06927 4.17195 46.78073 -66.57939 38.96159 -0.3999 137.23469 -16.7503 53.43284 5.78653 79.44531 -0.76825 1.53774 132.84724 -12.06367 -53.40868 8.36038 -85.56601 0.43718 -0.76091 15.25844 -10.27118 4.24656 -31.04549 7.385 1.73688 6.81568 21.64468 -1.69341 6.71514 -30.5017 5.08519 0.41979 -2.52976
-1.01674 0.91145 0.13969 173.02492 0 -0.53011 -58.06927 3.88556 44.83302 -66.57557 38.96034 -5.48431 136.20651 -11.00076 50.91878 5.78721 81.11479 -0.72535 1.41726 132.64446 -7.27226 -50.83037 7.83458 -84.2983 0.02262 -0.88175 15.02507 -9.81446 4.63613 -30.54193 7.00311 1.4568 6.33392 21.46292 -1.43386 6.49132 -30.19899 5.05884 0.44994 -2.40633
-1.01656 0.91255 0.13888 172.9347 0 -0.77684 -58.06927 3.6233 43.08394 -66.57707 38.96096 -10.10352 135.21191 -5.79318 48.74751 5.78786 82.63122 -0.68438 1.30916 132.46898 -3.10506 -48.56647 7.14217 -83.17789 -0.44956 -0.97488 14.8045 -9.38153 4.98481 -30.05562 6.6259 1.19176 5.88979 21.30991 -1.18376 6.27671 -29.92781 5.00781 0.48401 -2.28918
-1.01639 0.91362 0.13811 172.83677 0 -1.03221 -58.06927 3.3413 41.06673 -66.58697 38.96384 -15.42826 134.08098 0.18532 46.12939 5.7835 84.34307 -0.64183 1.21581 132.29037 1.74201 -46.04585 6.3977 -81.90273 -0.95212 -1.105 14.58764 -8.91949 5.40884 -29.57842 6.25617 0.90141 5.38275 21.15278 -0.92199 6.0777 -29.65398 4.97487 0.50647 -2.18763
-1.01629 0.91477 0.13725 172.74605 0 -1.27318 -58.06927 3.09066 39.53247 -66.55426 38.95364 -19.45792 133.21424 4.75464 44.31173 5.793 85.70043 -0.60248 1.08433 132.08375 5.42964 -43.92695 5.86386 -80.89166 -1.35658 -1.16917 14.35576 -8.50976 5.68738 -29.0726 5.86827 0.65953 4.9958 20.98913 -0.68108 5.84026 -29.3696 4.91589 0.55221 -2.04875
